<mxfile host="app.diagrams.net" modified="2023-02-20T16:01:30.019Z" agent="5.0 (Windows NT 10.0; Win64; x64) AppleWebKit/537.36 (KHTML, like Gecko) Chrome/110.0.0.0 Safari/537.36" etag="uUJH8Z7-r--CTmQXvuOB" version="20.8.17" type="github">
  <diagram name="第 1 页" id="U7nzVmlOmT9U_pLwt-ys">
    <mxGraphModel dx="576" dy="381" grid="1" gridSize="10" guides="1" tooltips="1" connect="1" arrows="1" fold="1" page="1" pageScale="1" pageWidth="827" pageHeight="1169" math="0" shadow="0">
      <root>
        <mxCell id="0" />
        <mxCell id="1" parent="0" />
        <mxCell id="1q7jzdVDW4Sem3Bj1qbZ-1" value="" style="rounded=0;whiteSpace=wrap;html=1;" vertex="1" parent="1">
          <mxGeometry x="63" y="30" width="120" height="310" as="geometry" />
        </mxCell>
        <mxCell id="1q7jzdVDW4Sem3Bj1qbZ-3" value="" style="rounded=0;whiteSpace=wrap;html=1;" vertex="1" parent="1">
          <mxGeometry x="233" y="30" width="120" height="310" as="geometry" />
        </mxCell>
        <mxCell id="1q7jzdVDW4Sem3Bj1qbZ-4" value="" style="rounded=0;whiteSpace=wrap;html=1;" vertex="1" parent="1">
          <mxGeometry x="415" y="30" width="120" height="310" as="geometry" />
        </mxCell>
        <mxCell id="1q7jzdVDW4Sem3Bj1qbZ-5" value="漏洞检测系统前端" style="text;html=1;strokeColor=none;fillColor=none;align=center;verticalAlign=middle;whiteSpace=wrap;rounded=0;" vertex="1" parent="1">
          <mxGeometry x="76" y="30" width="100" height="30" as="geometry" />
        </mxCell>
        <mxCell id="1q7jzdVDW4Sem3Bj1qbZ-6" value="漏洞检测系统服务器" style="text;html=1;strokeColor=none;fillColor=none;align=center;verticalAlign=middle;whiteSpace=wrap;rounded=0;" vertex="1" parent="1">
          <mxGeometry x="236" y="30" width="117" height="30" as="geometry" />
        </mxCell>
        <mxCell id="1q7jzdVDW4Sem3Bj1qbZ-7" value="学校内网VPN" style="text;html=1;strokeColor=none;fillColor=none;align=center;verticalAlign=middle;whiteSpace=wrap;rounded=0;" vertex="1" parent="1">
          <mxGeometry x="425" y="30" width="100" height="30" as="geometry" />
        </mxCell>
        <mxCell id="1q7jzdVDW4Sem3Bj1qbZ-11" style="edgeStyle=orthogonalEdgeStyle;rounded=0;orthogonalLoop=1;jettySize=auto;html=1;exitX=0.5;exitY=1;exitDx=0;exitDy=0;" edge="1" parent="1" source="1q7jzdVDW4Sem3Bj1qbZ-8" target="1q7jzdVDW4Sem3Bj1qbZ-9">
          <mxGeometry relative="1" as="geometry" />
        </mxCell>
        <mxCell id="1q7jzdVDW4Sem3Bj1qbZ-33" style="edgeStyle=orthogonalEdgeStyle;rounded=0;orthogonalLoop=1;jettySize=auto;html=1;exitX=1;exitY=0.5;exitDx=0;exitDy=0;entryX=0;entryY=0.5;entryDx=0;entryDy=0;" edge="1" parent="1" source="1q7jzdVDW4Sem3Bj1qbZ-8" target="1q7jzdVDW4Sem3Bj1qbZ-32">
          <mxGeometry relative="1" as="geometry" />
        </mxCell>
        <mxCell id="1q7jzdVDW4Sem3Bj1qbZ-8" value="用户" style="rounded=0;whiteSpace=wrap;html=1;" vertex="1" parent="1">
          <mxGeometry x="87.5" y="60" width="85" height="30" as="geometry" />
        </mxCell>
        <mxCell id="1q7jzdVDW4Sem3Bj1qbZ-15" style="edgeStyle=orthogonalEdgeStyle;rounded=0;orthogonalLoop=1;jettySize=auto;html=1;exitX=0.5;exitY=1;exitDx=0;exitDy=0;entryX=0.5;entryY=0;entryDx=0;entryDy=0;" edge="1" parent="1" source="1q7jzdVDW4Sem3Bj1qbZ-9" target="1q7jzdVDW4Sem3Bj1qbZ-14">
          <mxGeometry relative="1" as="geometry" />
        </mxCell>
        <mxCell id="1q7jzdVDW4Sem3Bj1qbZ-30" style="edgeStyle=orthogonalEdgeStyle;rounded=0;orthogonalLoop=1;jettySize=auto;html=1;exitX=1;exitY=0.5;exitDx=0;exitDy=0;entryX=0;entryY=0.5;entryDx=0;entryDy=0;" edge="1" parent="1" source="1q7jzdVDW4Sem3Bj1qbZ-9" target="1q7jzdVDW4Sem3Bj1qbZ-28">
          <mxGeometry relative="1" as="geometry" />
        </mxCell>
        <mxCell id="1q7jzdVDW4Sem3Bj1qbZ-9" value="请求登陆界面" style="rounded=0;whiteSpace=wrap;html=1;" vertex="1" parent="1">
          <mxGeometry x="87.5" y="120" width="85" height="30" as="geometry" />
        </mxCell>
        <mxCell id="1q7jzdVDW4Sem3Bj1qbZ-21" value="" style="edgeStyle=orthogonalEdgeStyle;rounded=0;orthogonalLoop=1;jettySize=auto;html=1;" edge="1" parent="1" source="1q7jzdVDW4Sem3Bj1qbZ-14" target="1q7jzdVDW4Sem3Bj1qbZ-20">
          <mxGeometry relative="1" as="geometry" />
        </mxCell>
        <mxCell id="1q7jzdVDW4Sem3Bj1qbZ-14" value="刷新不出页面" style="rounded=0;whiteSpace=wrap;html=1;" vertex="1" parent="1">
          <mxGeometry x="87.5" y="180" width="85" height="30" as="geometry" />
        </mxCell>
        <mxCell id="1q7jzdVDW4Sem3Bj1qbZ-26" style="edgeStyle=orthogonalEdgeStyle;rounded=0;orthogonalLoop=1;jettySize=auto;html=1;exitX=0.5;exitY=1;exitDx=0;exitDy=0;entryX=0;entryY=0.5;entryDx=0;entryDy=0;" edge="1" parent="1" source="1q7jzdVDW4Sem3Bj1qbZ-19" target="1q7jzdVDW4Sem3Bj1qbZ-9">
          <mxGeometry relative="1" as="geometry">
            <Array as="points">
              <mxPoint x="483" y="300" />
              <mxPoint x="70" y="300" />
              <mxPoint x="70" y="135" />
            </Array>
          </mxGeometry>
        </mxCell>
        <mxCell id="1q7jzdVDW4Sem3Bj1qbZ-19" value="验证成功" style="rounded=0;whiteSpace=wrap;html=1;" vertex="1" parent="1">
          <mxGeometry x="490" y="250" width="85" height="30" as="geometry" />
        </mxCell>
        <mxCell id="1q7jzdVDW4Sem3Bj1qbZ-23" style="edgeStyle=orthogonalEdgeStyle;rounded=0;orthogonalLoop=1;jettySize=auto;html=1;exitX=1;exitY=0.5;exitDx=0;exitDy=0;entryX=0;entryY=0.5;entryDx=0;entryDy=0;" edge="1" parent="1" source="1q7jzdVDW4Sem3Bj1qbZ-20" target="1q7jzdVDW4Sem3Bj1qbZ-19">
          <mxGeometry relative="1" as="geometry" />
        </mxCell>
        <mxCell id="1q7jzdVDW4Sem3Bj1qbZ-20" value="登陆VPN" style="rounded=0;whiteSpace=wrap;html=1;" vertex="1" parent="1">
          <mxGeometry x="87.5" y="250" width="85" height="30" as="geometry" />
        </mxCell>
        <mxCell id="1q7jzdVDW4Sem3Bj1qbZ-24" value="账号密码" style="text;html=1;strokeColor=none;fillColor=none;align=center;verticalAlign=middle;whiteSpace=wrap;rounded=0;" vertex="1" parent="1">
          <mxGeometry x="353" y="240" width="60" height="30" as="geometry" />
        </mxCell>
        <mxCell id="1q7jzdVDW4Sem3Bj1qbZ-27" value="再次登陆" style="text;html=1;strokeColor=none;fillColor=none;align=center;verticalAlign=middle;whiteSpace=wrap;rounded=0;" vertex="1" parent="1">
          <mxGeometry x="353" y="270" width="60" height="30" as="geometry" />
        </mxCell>
        <mxCell id="1q7jzdVDW4Sem3Bj1qbZ-28" value="登陆失败" style="rounded=0;whiteSpace=wrap;html=1;" vertex="1" parent="1">
          <mxGeometry x="250.5" y="120" width="85" height="30" as="geometry" />
        </mxCell>
        <mxCell id="1q7jzdVDW4Sem3Bj1qbZ-31" value="无公钥" style="text;html=1;strokeColor=none;fillColor=none;align=center;verticalAlign=middle;whiteSpace=wrap;rounded=0;" vertex="1" parent="1">
          <mxGeometry x="180" y="110" width="60" height="30" as="geometry" />
        </mxCell>
        <mxCell id="1q7jzdVDW4Sem3Bj1qbZ-32" value="上传成功" style="rounded=0;whiteSpace=wrap;html=1;" vertex="1" parent="1">
          <mxGeometry x="250.5" y="60" width="85" height="30" as="geometry" />
        </mxCell>
        <mxCell id="1q7jzdVDW4Sem3Bj1qbZ-34" value="上传公钥" style="text;html=1;strokeColor=none;fillColor=none;align=center;verticalAlign=middle;whiteSpace=wrap;rounded=0;" vertex="1" parent="1">
          <mxGeometry x="176" y="50" width="60" height="30" as="geometry" />
        </mxCell>
        <mxCell id="1q7jzdVDW4Sem3Bj1qbZ-35" value="" style="rounded=0;whiteSpace=wrap;html=1;" vertex="1" parent="1">
          <mxGeometry x="79" y="450" width="120" height="310" as="geometry" />
        </mxCell>
        <mxCell id="1q7jzdVDW4Sem3Bj1qbZ-36" value="" style="rounded=0;whiteSpace=wrap;html=1;" vertex="1" parent="1">
          <mxGeometry x="431" y="450" width="120" height="310" as="geometry" />
        </mxCell>
        <mxCell id="1q7jzdVDW4Sem3Bj1qbZ-37" value="" style="rounded=0;whiteSpace=wrap;html=1;" vertex="1" parent="1">
          <mxGeometry x="285" y="450" width="120" height="310" as="geometry" />
        </mxCell>
        <mxCell id="1q7jzdVDW4Sem3Bj1qbZ-39" value="漏洞检测系统服务器" style="text;html=1;strokeColor=none;fillColor=none;align=center;verticalAlign=middle;whiteSpace=wrap;rounded=0;" vertex="1" parent="1">
          <mxGeometry x="434" y="450" width="117" height="30" as="geometry" />
        </mxCell>
        <mxCell id="1q7jzdVDW4Sem3Bj1qbZ-40" value="学校内网VPN" style="text;html=1;strokeColor=none;fillColor=none;align=center;verticalAlign=middle;whiteSpace=wrap;rounded=0;" vertex="1" parent="1">
          <mxGeometry x="291" y="450" width="100" height="30" as="geometry" />
        </mxCell>
        <mxCell id="1q7jzdVDW4Sem3Bj1qbZ-59" style="edgeStyle=orthogonalEdgeStyle;rounded=0;orthogonalLoop=1;jettySize=auto;html=1;exitX=0.5;exitY=1;exitDx=0;exitDy=0;" edge="1" parent="1" source="1q7jzdVDW4Sem3Bj1qbZ-43" target="1q7jzdVDW4Sem3Bj1qbZ-52">
          <mxGeometry relative="1" as="geometry" />
        </mxCell>
        <mxCell id="1q7jzdVDW4Sem3Bj1qbZ-43" value="用户" style="rounded=0;whiteSpace=wrap;html=1;" vertex="1" parent="1">
          <mxGeometry x="100.5" y="470" width="85" height="30" as="geometry" />
        </mxCell>
        <mxCell id="1q7jzdVDW4Sem3Bj1qbZ-62" style="edgeStyle=orthogonalEdgeStyle;rounded=0;orthogonalLoop=1;jettySize=auto;html=1;exitX=0.5;exitY=1;exitDx=0;exitDy=0;entryX=1;entryY=0.5;entryDx=0;entryDy=0;" edge="1" parent="1" source="1q7jzdVDW4Sem3Bj1qbZ-50" target="1q7jzdVDW4Sem3Bj1qbZ-61">
          <mxGeometry relative="1" as="geometry" />
        </mxCell>
        <mxCell id="1q7jzdVDW4Sem3Bj1qbZ-50" value="验证成功" style="rounded=0;whiteSpace=wrap;html=1;" vertex="1" parent="1">
          <mxGeometry x="306" y="540" width="85" height="30" as="geometry" />
        </mxCell>
        <mxCell id="1q7jzdVDW4Sem3Bj1qbZ-51" style="edgeStyle=orthogonalEdgeStyle;rounded=0;orthogonalLoop=1;jettySize=auto;html=1;exitX=1;exitY=0.5;exitDx=0;exitDy=0;entryX=0;entryY=0.5;entryDx=0;entryDy=0;" edge="1" parent="1" source="1q7jzdVDW4Sem3Bj1qbZ-52" target="1q7jzdVDW4Sem3Bj1qbZ-50">
          <mxGeometry relative="1" as="geometry" />
        </mxCell>
        <mxCell id="1q7jzdVDW4Sem3Bj1qbZ-52" value="登录VPN" style="rounded=0;whiteSpace=wrap;html=1;" vertex="1" parent="1">
          <mxGeometry x="100.5" y="540" width="85" height="30" as="geometry" />
        </mxCell>
        <mxCell id="1q7jzdVDW4Sem3Bj1qbZ-53" value="VPN账号密码" style="text;html=1;strokeColor=none;fillColor=none;align=center;verticalAlign=middle;whiteSpace=wrap;rounded=0;" vertex="1" parent="1">
          <mxGeometry x="198" y="528" width="80" height="30" as="geometry" />
        </mxCell>
        <mxCell id="1q7jzdVDW4Sem3Bj1qbZ-65" style="edgeStyle=orthogonalEdgeStyle;rounded=0;orthogonalLoop=1;jettySize=auto;html=1;exitX=0.5;exitY=1;exitDx=0;exitDy=0;entryX=0.5;entryY=0;entryDx=0;entryDy=0;" edge="1" parent="1" source="1q7jzdVDW4Sem3Bj1qbZ-61" target="1q7jzdVDW4Sem3Bj1qbZ-63">
          <mxGeometry relative="1" as="geometry" />
        </mxCell>
        <mxCell id="1q7jzdVDW4Sem3Bj1qbZ-61" value="VPN登录成功" style="rounded=0;whiteSpace=wrap;html=1;" vertex="1" parent="1">
          <mxGeometry x="100.5" y="600" width="85" height="30" as="geometry" />
        </mxCell>
        <mxCell id="1q7jzdVDW4Sem3Bj1qbZ-67" style="edgeStyle=orthogonalEdgeStyle;rounded=0;orthogonalLoop=1;jettySize=auto;html=1;exitX=1;exitY=0.5;exitDx=0;exitDy=0;entryX=0;entryY=0.5;entryDx=0;entryDy=0;" edge="1" parent="1" source="1q7jzdVDW4Sem3Bj1qbZ-63" target="1q7jzdVDW4Sem3Bj1qbZ-66">
          <mxGeometry relative="1" as="geometry" />
        </mxCell>
        <mxCell id="1q7jzdVDW4Sem3Bj1qbZ-63" value="请求登陆界面" style="rounded=0;whiteSpace=wrap;html=1;" vertex="1" parent="1">
          <mxGeometry x="100.5" y="660" width="85" height="30" as="geometry" />
        </mxCell>
        <mxCell id="1q7jzdVDW4Sem3Bj1qbZ-70" style="edgeStyle=orthogonalEdgeStyle;rounded=0;orthogonalLoop=1;jettySize=auto;html=1;exitX=0.5;exitY=1;exitDx=0;exitDy=0;entryX=1;entryY=0.5;entryDx=0;entryDy=0;" edge="1" parent="1" source="1q7jzdVDW4Sem3Bj1qbZ-66" target="1q7jzdVDW4Sem3Bj1qbZ-69">
          <mxGeometry relative="1" as="geometry" />
        </mxCell>
        <mxCell id="1q7jzdVDW4Sem3Bj1qbZ-66" value="身份认证" style="rounded=0;whiteSpace=wrap;html=1;" vertex="1" parent="1">
          <mxGeometry x="451" y="660" width="85" height="30" as="geometry" />
        </mxCell>
        <mxCell id="1q7jzdVDW4Sem3Bj1qbZ-68" value="系统账号密码、公钥信息" style="text;html=1;strokeColor=none;fillColor=none;align=center;verticalAlign=middle;whiteSpace=wrap;rounded=0;" vertex="1" parent="1">
          <mxGeometry x="189" y="650" width="161" height="30" as="geometry" />
        </mxCell>
        <mxCell id="1q7jzdVDW4Sem3Bj1qbZ-69" value="系统登录成功" style="rounded=0;whiteSpace=wrap;html=1;" vertex="1" parent="1">
          <mxGeometry x="100.5" y="710" width="85" height="30" as="geometry" />
        </mxCell>
        <mxCell id="1q7jzdVDW4Sem3Bj1qbZ-71" value="用户信息token" style="text;html=1;strokeColor=none;fillColor=none;align=center;verticalAlign=middle;whiteSpace=wrap;rounded=0;" vertex="1" parent="1">
          <mxGeometry x="194" y="700" width="97" height="30" as="geometry" />
        </mxCell>
      </root>
    </mxGraphModel>
  </diagram>
</mxfile>
